<svg xmlns="http://www.w3.org/2000/svg" width="96" height="96" fill="none" viewBox="0 0 96 96"><path fill="url(#paint0_linear)" fill-rule="evenodd" d="M48 96C74.5097 96 96 74.5097 96 48C96 21.4903 74.5097 0 48 0C21.4903 0 0 21.4903 0 48C0 74.5097 21.4903 96 48 96ZM80.0001 52C80.0001 67.464 67.4641 80 52.0001 80C36.5361 80 24.0001 67.464 24.0001 52C24.0001 49.1303 24.4318 46.3615 25.2338 43.7548C27.4288 48.6165 32.3194 52 38.0001 52C45.7321 52 52.0001 45.732 52.0001 38C52.0001 32.3192 48.6166 27.4287 43.755 25.2337C46.3616 24.4317 49.1304 24 52.0001 24C67.4641 24 80.0001 36.536 80.0001 52Z" clip-rule="evenodd"/><path fill="#131928" fill-rule="evenodd" d="M80.0002 52C80.0002 67.464 67.4642 80 52.0002 80C36.864 80 24.5329 67.9897 24.017 52.9791C24.0057 53.318 24 53.6583 24 54C24 70.5685 37.4315 84 54 84C70.5685 84 84 70.5685 84 54C84 37.4315 70.5685 24 54 24C53.6597 24 53.3207 24.0057 52.9831 24.0169C67.9919 24.5347 80.0002 36.865 80.0002 52Z" clip-rule="evenodd" opacity=".2"/><path fill="url(#paint1_linear)" fill-rule="evenodd" d="M48 12C28.1177 12 12 28.1177 12 48C12 50.2091 10.2091 52 8 52C5.79086 52 4 50.2091 4 48C4 23.6995 23.6995 4 48 4C50.2091 4 52 5.79086 52 8C52 10.2091 50.2091 12 48 12Z" clip-rule="evenodd"/><rect width="44" height="26" x="49" y="67" fill="#131928" rx="8"/><rect width="42" height="24" x="50" y="68" stroke="white" stroke-opacity=".22" stroke-width="2" rx="7"/><path fill="white" transform="translate(55 87) scale(1 -1)" d="M14.459 0.000 L10.619 0.000 L4.400 10.800 L4.319 10.800 Q4.359 9.781 4.409 8.759 Q4.459 7.741 4.500 6.719 L4.500 0.000 L1.800 0.000 L1.800 14.281 L5.619 14.281 L11.819 3.581 L11.881 3.581 Q11.859 4.581 11.819 5.559 Q11.781 6.541 11.741 7.519 L11.741 14.281 L14.459 14.281 L14.459 0.000 Z M23.479 8.019 L29.141 8.019 L29.141 0.619 Q28.019 0.241 26.810 0.019 Q25.601 -0.200 24.060 -0.200 Q20.860 -0.200 19.138 1.678 Q17.419 3.559 17.419 7.159 Q17.419 9.400 18.288 11.041 Q19.160 12.681 20.819 13.581 Q22.479 14.481 24.879 14.481 Q26.019 14.481 27.119 14.241 Q28.219 14.000 29.119 13.600 L28.119 11.181 Q27.460 11.519 26.619 11.738 Q25.779 11.959 24.860 11.959 Q23.541 11.959 22.569 11.359 Q21.601 10.759 21.069 9.669 Q20.541 8.581 20.541 7.100 Q20.541 5.700 20.919 4.619 Q21.301 3.541 22.119 2.928 Q22.941 2.319 24.260 2.319 Q24.901 2.319 25.351 2.378 Q25.801 2.441 26.179 2.519 L26.179 5.500 L23.479 5.500 L23.479 8.019 Z"/><defs><linearGradient id="paint0_linear" x1="48" x2="117.5" y1="0" y2="69.5" gradientUnits="userSpaceOnUse"><stop stop-color="#C395FC"/><stop offset="1" stop-color="#4F65F5"/></linearGradient><linearGradient id="paint1_linear" x1="28" x2="28" y1="8" y2="48" gradientUnits="userSpaceOnUse"><stop stop-color="#fff" stop-opacity=".4"/><stop offset="1" stop-color="#fff" stop-opacity="0"/></linearGradient></defs></svg>
