<svg xmlns="http://www.w3.org/2000/svg" viewBox="0 0 24 24" fill="none" aria-hidden="true">
  <path
    d="M5 6 10 4l6 2 4 5-3 7-6-2-6 3-1-7 1-6Zm0 0-1 6 7 4m-1-12 1 12 9-5m-4-5-5 10m6 2-13-6m16-1-4-5m1 12-12 1"
    stroke="currentColor"
    stroke-width="1.8"
    stroke-linecap="round"
    stroke-linejoin="round"
  />
  <circle cx="5" cy="6" r="1.9" fill="currentColor" />
  <circle cx="10" cy="4" r="1.9" fill="currentColor" />
  <circle cx="16" cy="6" r="1.9" fill="currentColor" />
  <circle cx="20" cy="11" r="1.9" fill="currentColor" />
  <circle cx="17" cy="18" r="1.9" fill="currentColor" />
  <circle cx="11" cy="16" r="1.9" fill="currentColor" />
  <circle cx="5" cy="19" r="1.9" fill="currentColor" />
  <circle cx="4" cy="12" r="1.9" fill="currentColor" />
</svg>
